<?xml version="1.0" standalone="no"?>
<!DOCTYPE svg PUBLIC "-//W3C//DTD SVG 20010904//EN"
 "http://www.w3.org/TR/2001/REC-SVG-20010904/DTD/svg10.dtd">
<svg version="1.0" xmlns="http://www.w3.org/2000/svg"
 width="170.000000pt" height="170.000000pt" viewBox="0 0 170.000000 170.000000"
 preserveAspectRatio="xMidYMid meet">

<g transform="translate(0.000000,170.000000) scale(0.100000,-0.100000)"
fill="#000000" stroke="none">
<path d="M740 704 c-140 -37 -255 -122 -325 -242 l-45 -76 23 -24 c69 -76 262
-195 400 -247 l65 -24 53 20 c141 54 309 155 396 239 39 38 41 43 31 68 -74
172 -283 303 -478 301 -36 0 -90 -7 -120 -15z m152 -39 c-98 -30 -133 -108
-84 -183 l15 -23 18 30 c27 44 66 66 116 64 27 -1 43 3 43 10 1 28 19 -21 25
-65 4 -26 11 -45 16 -42 24 14 39 -19 39 -85 0 -66 -10 -91 -37 -91 -15 0 -18
36 -3 45 6 3 10 16 10 28 0 16 -5 11 -19 -18 -22 -49 -69 -106 -85 -103 -19 3
-54 -12 -60 -27 -8 -22 -98 -19 -144 4 -44 22 -87 66 -78 79 3 5 -3 17 -14 27
-24 21 -41 100 -33 151 5 31 8 34 14 19 6 -16 8 -13 8 13 2 66 41 113 131 156
39 18 71 26 110 25 l55 0 -43 -14z m7 -34 c18 -18 18 -18 -1 -30 -28 -18 -52
3 -35 30 14 23 13 23 36 0z"/>
<path d="M945 460 c-9 -14 13 -50 30 -50 18 0 19 14 5 41 -12 21 -25 25 -35 9z"/>
</g>
</svg>
