<?xml version="1.0" encoding="UTF-8" standalone="no" ?>
<!DOCTYPE svg PUBLIC "-//W3C//DTD SVG 1.1//EN" "http://www.w3.org/Graphics/SVG/1.1/DTD/svg11.dtd">
<svg xmlns="http://www.w3.org/2000/svg" xmlns:xlink="http://www.w3.org/1999/xlink" version="1.1" width="1080" height="250" viewBox="0 0 1080 250" xml:space="preserve">
<desc>Created with Fabric.js 5.2.4</desc>
<defs>
</defs>
<rect x="0" y="0" width="100%" height="100%" fill="transparent"></rect>
<g transform="matrix(1 0 0 1 540 540)" id="a3a1521d-44be-4529-8490-79d85c0bba83"  >
<rect style="stroke: none; stroke-width: 1; stroke-dasharray: none; stroke-linecap: butt; stroke-dashoffset: 0; stroke-linejoin: miter; stroke-miterlimit: 4; fill: rgb(255,255,255); fill-rule: nonzero; opacity: 1; visibility: hidden;" vector-effect="non-scaling-stroke"  x="-540" y="-540" rx="0" ry="0" width="1080" height="1080" />
</g>
<g transform="matrix(1 0 0 1 540 540)" id="529357f0-5b75-4dc3-9680-091cbb67dee5"  >
</g>
<g transform="matrix(0.75 0 0 0.75 540 266.96)"  >
<path style="stroke: none; stroke-width: 1; stroke-dasharray: none; stroke-linecap: butt; stroke-dashoffset: 0; stroke-linejoin: miter; stroke-miterlimit: 4; fill: rgb(254,240,0); fill-rule: nonzero; opacity: 1;"  transform=" translate(-720, -351.5)" d="M 0 702.491 L 0.0000175123 220 C 313.5 273 1110.61 211.655 1440 0.5 L 1440 702.491 L 0 702.491 Z" stroke-linecap="round" />
</g>
<g transform="matrix(0.75 0 0 0.75 540 765.31)"  >
<path style="stroke: none; stroke-width: 1; stroke-dasharray: none; stroke-linecap: butt; stroke-dashoffset: 0; stroke-linejoin: miter; stroke-miterlimit: 4; fill: rgb(124,179,66); fill-rule: nonzero; opacity: 1;"  transform=" translate(-720, -879)" d="M 0 1758 L 0 126.485 C 325.2 198.492 1132 165.331 1440 0 L 1440 1758 L 0 1758 Z" stroke-linecap="round" />
</g>
</svg>