<svg width="60" height="60" viewBox="0 0 60 60" fill="none" xmlns="http://www.w3.org/2000/svg">
<path d="M58.2422 24.7266H56.4844C56.4844 23.8952 56.4844 1.82016 56.4844 1.75781C56.4844 0.787031 55.6973 0 54.7266 0H44.1797C43.2089 0 42.4219 0.787031 42.4219 1.75781V3.51562H31.875C31.2267 3.51562 30.6311 3.87246 30.3252 4.44398C30.0193 5.01551 30.0529 5.70902 30.4124 6.24844L33.2781 10.5469L30.4124 14.8452C30.0529 15.3846 30.0193 16.0781 30.3252 16.6496C30.6311 17.2212 31.2267 17.5781 31.875 17.5781H44.1797C45.1505 17.5781 45.9375 16.7911 45.9375 15.8203V14.0625H52.9688V24.7266H44.1797C43.2089 24.7266 42.4219 25.5136 42.4219 26.4844V35.2734H30.1172C29.1464 35.2734 28.3594 36.0605 28.3594 37.0312V42.3047H15.9375C14.9667 42.3047 14.1797 43.0917 14.1797 44.0625V49.3359H1.75781C0.787031 49.3359 0 50.123 0 51.0938V58.2422C0 59.213 0.787031 60 1.75781 60H58.2422C59.213 60 60 59.213 60 58.2422V26.4844C60 25.5136 59.213 24.7266 58.2422 24.7266ZM42.4219 14.0625H35.1594L36.8531 11.522C37.2468 10.9315 37.2468 10.1623 36.8531 9.57187L35.1594 7.03125H42.4219V14.0625ZM45.9375 3.51562H52.9688V10.5469H45.9375V3.51562ZM3.51562 52.8516H14.1797V56.4844H3.51562V52.8516ZM17.6953 45.8203H28.3594V56.4844H17.6953V45.8203ZM31.875 38.7891H42.4219V56.4844H31.875V38.7891ZM56.4844 56.4844H45.9375V28.2422H56.4844V56.4844Z" fill="#7CB342"/>
</svg>
