<svg width="60" height="60" viewBox="0 0 60 60" fill="none" xmlns="http://www.w3.org/2000/svg">
<path d="M28.6926 25.2708C29.0223 25.6004 29.4693 25.7857 29.9355 25.7857C30.4017 25.7857 30.8488 25.6005 31.1784 25.2708L42.1257 14.3235C43.7109 12.7384 44.5839 10.6307 44.5839 8.38888C44.5839 6.14709 43.7109 4.03947 42.1257 2.45416C38.8533 -0.818055 33.5289 -0.818055 30.2564 2.45416L29.9355 2.77502L29.6145 2.45416C26.3422 -0.818055 21.0177 -0.818055 17.7452 2.45416C16.1602 4.03936 15.2871 6.14709 15.2871 8.38888C15.2871 10.6307 16.1602 12.7383 17.7453 14.3235L28.6926 25.2708ZM20.2312 4.94017C21.1822 3.98932 22.431 3.51401 23.6801 3.51401C24.9288 3.51401 26.178 3.98955 27.1288 4.94017L28.6926 6.50415C29.0223 6.8338 29.4693 7.01907 29.9356 7.01907C30.4019 7.01907 30.849 6.83392 31.1786 6.50415L32.7425 4.94017C34.6442 3.03858 37.7383 3.03858 39.6399 4.94017C40.5611 5.86138 41.0684 7.08611 41.0684 8.38899C41.0684 9.69165 40.5611 10.9165 39.6399 11.8377L29.9356 21.5421L20.2312 11.8377C19.3101 10.9166 18.8028 9.69176 18.8028 8.38899C18.8028 7.08622 19.3101 5.86138 20.2312 4.94017Z" fill="#7CB342"/>
<path d="M53.5094 44.4055C54.6329 43.078 55.3124 41.3633 55.3124 39.4922V35.9766C55.3124 31.7765 51.8953 28.3594 47.6952 28.3594C43.4951 28.3594 40.078 31.7765 40.078 35.9766V39.4922C40.078 41.3669 40.7601 43.0845 41.8874 44.4129C40.206 45.1172 38.7164 46.2485 37.5892 47.7008C37.0323 47.3298 36.4384 47.0104 35.8142 46.7493C36.9376 45.4218 37.6171 43.7071 37.6171 41.836V38.3203C37.6171 34.1202 34.2 30.7032 29.9999 30.7032C25.7998 30.7032 22.3828 34.1202 22.3828 38.3203V41.836C22.3828 43.7071 23.0622 45.4218 24.1857 46.7493C23.5614 47.0104 22.9675 47.3299 22.4107 47.7008C21.2834 46.2486 19.7939 45.1172 18.1125 44.4129C19.2398 43.0845 19.9218 41.3669 19.9218 39.4922V35.9766C19.9218 31.7765 16.5048 28.3594 12.3047 28.3594C8.10455 28.3594 4.68749 31.7765 4.68749 35.9766V39.4922C4.68749 41.3633 5.36694 43.078 6.49041 44.4055C2.68265 45.9981 0 49.7618 0 54.1406V55.8984C0 56.8692 0.787029 57.6562 1.75781 57.6562H17.6953V58.2422C17.6953 59.213 18.4823 60 19.4531 60H40.5468C41.5176 60 42.3046 59.213 42.3046 58.2422V57.6562H58.2421C59.2128 57.6562 59.9999 56.8692 59.9999 55.8984V54.1406C59.9999 49.7618 57.3172 45.9981 53.5094 44.4055ZM43.5936 35.9766C43.5936 33.715 45.4336 31.8751 47.6952 31.8751C49.9568 31.8751 51.7968 33.715 51.7968 35.9766V39.4922C51.7968 41.7538 49.9568 43.5938 47.6952 43.5938C45.4336 43.5938 43.5936 41.7538 43.5936 39.4922V35.9766ZM25.8984 38.3203C25.8984 36.0588 27.7383 34.2188 29.9999 34.2188C32.2615 34.2188 34.1015 36.0588 34.1015 38.3203V41.836C34.1015 44.0976 32.2615 45.9375 29.9999 45.9375C27.7383 45.9375 25.8984 44.0976 25.8984 41.836V38.3203ZM8.20311 35.9766C8.20311 33.715 10.0431 31.8751 12.3047 31.8751C14.5663 31.8751 16.4062 33.715 16.4062 35.9766V39.4922C16.4062 41.7538 14.5663 43.5938 12.3047 43.5938C10.0431 43.5938 8.20311 41.7538 8.20311 39.4922V35.9766ZM10.5469 47.1094H14.0625C16.3687 47.1094 18.5305 48.2653 19.8331 50.1261C18.9447 51.2981 18.2953 52.6605 17.9581 54.1406H3.51562C3.51562 50.2636 6.66983 47.1094 10.5469 47.1094ZM21.2109 56.4844C21.2109 52.6073 24.3651 49.4531 28.2421 49.4531H31.7577C35.6348 49.4531 38.789 52.6073 38.789 56.4844H21.2109ZM42.0417 54.1406C41.7046 52.6605 41.0551 51.2981 40.1667 50.1261C41.4694 48.2653 43.6311 47.1094 45.9374 47.1094H49.453C53.33 47.1094 56.4842 50.2636 56.4842 54.1406H42.0417Z" fill="#7CB342"/>
</svg>
