<svg
    width="60"
    height="60"
    viewBox="0 0 60 60"
    fill="none"
    xmlns="http://www.w3.org/2000/svg"
>
    <path
    d="M60 19.3359C60 18.6343 59.8639 17.9522 59.5957 17.3085C59.5955 17.308 59.5952 17.3074 59.595 17.307L53.735 3.24492C52.9136 1.27371 51.0028 0 48.8673 0H11.1327C8.99719 0 7.08645 1.27371 6.26496 3.24492L0.404297 17.3084C0.136055 17.9522 0 18.6343 0 19.3359V26.6016C0 27.9512 0.510234 29.1834 1.34707 30.1172C0.510234 31.0509 0 32.2832 0 33.6328V40.6641C0 42.0137 0.510234 43.2459 1.34707 44.1797C0.510234 45.1134 0 46.3457 0 47.6953V54.7266C0 57.6343 2.36566 60 5.27344 60H54.7266C57.6343 60 60 57.6343 60 54.7266V47.6953C60 46.3457 59.4898 45.1134 58.6529 44.1797C59.4899 43.2459 60 42.0137 60 40.6641V33.6328C60 32.2832 59.4898 31.0509 58.6529 30.1172C59.4899 29.1834 60 27.9512 60 26.6016V19.3359ZM9.51012 4.59727C9.78398 3.9402 10.4209 3.51562 11.1327 3.51562H48.8673C49.5791 3.51562 50.216 3.9402 50.4899 4.59727L54.4344 14.0625H5.56559L9.51012 4.59727ZM56.4844 54.7266C56.4844 55.6958 55.6958 56.4844 54.7266 56.4844H5.27344C4.30418 56.4844 3.51562 55.6958 3.51562 54.7266V47.6953C3.51562 46.7261 4.30418 45.9375 5.27344 45.9375H54.7266C55.6958 45.9375 56.4844 46.7261 56.4844 47.6953V54.7266ZM56.4844 40.6641C56.4844 41.6333 55.6958 42.4219 54.7266 42.4219H5.27344C4.30418 42.4219 3.51562 41.6333 3.51562 40.6641V33.6328C3.51562 32.6636 4.30418 31.875 5.27344 31.875H54.7266C55.6958 31.875 56.4844 32.6636 56.4844 33.6328V40.6641ZM56.4844 26.6016C56.4844 27.5708 55.6958 28.3594 54.7266 28.3594H5.27344C4.30418 28.3594 3.51562 27.5708 3.51562 26.6016V19.3359C3.51562 18.3584 4.305 17.5781 5.27344 17.5781H54.7266C55.698 17.5781 56.4844 18.3614 56.4844 19.3359V26.6016Z"
    fill="#7CB342"
    />
    <path
    d="M51.2109 49.4531H19.3359C18.3652 49.4531 17.5781 50.2402 17.5781 51.2109C17.5781 52.1817 18.3652 52.9688 19.3359 52.9688H51.2109C52.1817 52.9688 52.9688 52.1817 52.9688 51.2109C52.9688 50.2402 52.1817 49.4531 51.2109 49.4531Z"
    fill="#7CB342"
    />
    <path
    d="M51.2109 21.0938H19.3359C18.3652 21.0938 17.5781 21.8808 17.5781 22.8516C17.5781 23.8223 18.3652 24.6094 19.3359 24.6094H51.2109C52.1817 24.6094 52.9688 23.8223 52.9688 22.8516C52.9688 21.8808 52.1817 21.0938 51.2109 21.0938Z"
    fill="#7CB342"
    />
    <path
    d="M8.78906 21.0938C7.81828 21.0938 7.03125 21.8808 7.03125 22.8516C7.03125 23.8223 7.81828 24.8438 8.78906 24.8438C9.75984 24.8438 10.5469 23.8223 10.5469 22.8516C10.5469 21.8808 9.75984 21.0938 8.78906 21.0938Z"
    fill="#7CB342"
    />
    <path
    d="M51.2109 35.3906H19.3359C18.3652 35.3906 17.5781 36.1777 17.5781 37.1484C17.5781 38.1192 18.3652 38.9062 19.3359 38.9062H51.2109C52.1817 38.9062 52.9688 38.1192 52.9688 37.1484C52.9688 36.1777 52.1817 35.3906 51.2109 35.3906Z"
    fill="#7CB342"
    />
    <path
    d="M8.78906 38.9062C9.75988 38.9062 10.5469 38.1193 10.5469 37.1484C10.5469 36.1776 9.75988 35.3906 8.78906 35.3906C7.81825 35.3906 7.03125 36.1776 7.03125 37.1484C7.03125 38.1193 7.81825 38.9062 8.78906 38.9062Z"
    fill="#7CB342"
    />
    <path
    d="M8.78906 52.9688C9.75988 52.9688 10.5469 52.1818 10.5469 51.2109C10.5469 50.2401 9.75988 49.4531 8.78906 49.4531C7.81825 49.4531 7.03125 50.2401 7.03125 51.2109C7.03125 52.1818 7.81825 52.9688 8.78906 52.9688Z"
    fill="#7CB342"
    />
</svg>