<svg width="60" height="60" viewBox="0 0 60 60" fill="none" xmlns="http://www.w3.org/2000/svg">
<path d="M44.3507 6.53766C43.3474 2.73914 39.8823 0 35.8594 0C33.6673 0 31.5925 0.811758 30 2.23898C28.4075 0.811758 26.3327 0 24.1406 0C20.1178 0 16.6527 2.73914 15.6493 6.53766C11.2819 8.11863 8.32031 12.2679 8.32031 16.9922C8.32031 19.3226 9.0443 21.5616 10.3836 23.4375C9.0443 25.3134 8.32031 27.5524 8.32031 29.8828C8.32031 34.6071 11.2819 38.7564 15.6493 40.3373C16.3975 43.1697 18.5148 45.4123 21.2109 46.3702V49.8047C21.2109 51.4376 22.1702 52.8502 23.5547 53.5097V53.5547C23.5547 57.1086 26.4461 60 30 60C33.5539 60 36.4453 57.1086 36.4453 53.5547V53.5097C37.8298 52.8502 38.7891 51.4376 38.7891 49.8047V46.3703C41.4853 45.4124 43.6027 43.1698 44.3507 40.3373C48.7181 38.7565 51.6797 34.6071 51.6797 29.8828C51.6797 27.5524 50.9557 25.3134 49.6164 23.4375C50.9557 21.5616 51.6797 19.3226 51.6797 16.9922C51.6797 12.2679 48.7181 8.11852 44.3507 6.53766ZM34.6875 50.3906H25.3125C24.9894 50.3906 24.7266 50.1278 24.7266 49.8047V46.875H35.2734V49.8047C35.2734 50.1278 35.0106 50.3906 34.6875 50.3906ZM18.8962 8.23816C19.2253 5.60906 21.4903 3.51562 24.1406 3.51562C25.7453 3.51562 27.244 4.24348 28.2422 5.48156V27.8898C26.1962 27.3254 24.7266 25.8057 24.7266 24.0234C24.7266 23.0527 23.9395 22.2656 22.9688 22.2656C21.998 22.2656 21.2109 23.0527 21.2109 24.0234C21.2109 27.702 24.2353 30.7796 28.2422 31.4873V43.3594H24.1406C21.4903 43.3594 19.2234 41.2543 18.8944 38.6254C18.738 37.0839 19.264 35.5048 20.4117 34.357C21.0982 33.6707 21.0982 32.5576 20.4117 31.8711C19.7254 31.1848 18.6123 31.1848 17.9258 31.8711C16.6571 33.1398 15.8453 34.725 15.5181 36.3987C13.2761 35.0504 11.8359 32.6064 11.8359 29.8828C11.8359 27.9316 12.5804 26.0722 13.9322 24.6472C14.5755 23.9691 14.5755 22.9059 13.9322 22.2278C12.5804 20.8028 11.8359 18.9434 11.8359 16.9922C11.8359 14.2682 13.2765 11.8237 15.5191 10.4757C15.8514 12.1698 16.6764 13.7545 17.9258 15.0039C18.2691 15.3471 18.7189 15.5188 19.1687 15.5188C19.6185 15.5188 20.0685 15.3471 20.4116 15.0039C21.0981 14.3175 21.0981 13.2045 20.4116 12.518C19.2863 11.3925 18.7327 9.8134 18.8962 8.23816ZM30 56.4844C28.5036 56.4844 27.2665 55.3564 27.0921 53.9062H32.9078C32.7335 55.3564 31.4964 56.4844 30 56.4844ZM41.1038 8.23793C41.2675 9.81328 40.7139 11.3925 39.5883 12.518C38.9018 13.2043 38.9018 14.3174 39.5883 15.0039C39.9315 15.3471 40.3814 15.5188 40.8312 15.5188C41.2809 15.5188 41.7309 15.3471 42.0741 15.0039C43.3235 13.7544 44.1477 12.1693 44.48 10.4753C46.7232 11.8233 48.1641 14.2678 48.1641 16.9922C48.1641 18.9434 47.4196 20.8028 46.0678 22.2278C45.4245 22.9059 45.4245 23.9691 46.0678 24.6472C47.4196 26.0722 48.1641 27.9316 48.1641 29.8828C48.1641 32.6077 46.7227 35.0528 44.4789 36.4005C44.1529 34.7264 43.3433 33.1403 42.0742 31.8711C41.3878 31.1848 40.2748 31.1848 39.5883 31.8711C38.9018 32.5575 38.9018 33.6705 39.5883 34.357C40.7361 35.5049 41.2621 37.084 41.1056 38.6256C40.7766 41.2545 38.5098 43.3594 35.8594 43.3594H31.7578V18.9852C33.8038 19.5496 35.2734 21.0693 35.2734 22.8516C35.2734 23.8223 36.0605 24.6094 37.0312 24.6094C38.002 24.6094 38.7891 23.8223 38.7891 22.8516C38.7891 19.173 35.7647 16.0954 31.7578 15.3877V5.48156C32.756 4.24348 34.2547 3.51562 35.8594 3.51562C38.5098 3.51562 40.7747 5.60894 41.1038 8.23793Z" fill="#7CB342"/>
<path d="M53.2642 10.9361C53.8026 11.7439 54.894 11.9621 55.7018 11.4236L59.2174 9.0799C60.0252 8.54142 60.2434 7.45006 59.7049 6.64228C59.1664 5.83451 58.0751 5.61631 57.2673 6.15478L53.7517 8.49853C52.9439 9.03701 52.7257 10.1284 53.2642 10.9361Z" fill="#7CB342"/>
<path d="M59.2174 37.7954L55.7018 35.4517C54.894 34.9132 53.8026 35.1314 53.2642 35.9392C52.7257 36.7469 52.9439 37.8383 53.7517 38.3768L57.2673 40.7205C58.0751 41.259 59.1664 41.0408 59.7049 40.233C60.2434 39.4254 60.0252 38.334 59.2174 37.7954Z" fill="#7CB342"/>
<path d="M6.24865 8.49853L2.73302 6.15478C1.92525 5.61631 0.833884 5.83451 0.295407 6.64228C-0.243069 7.45006 -0.024866 8.54142 0.782907 9.0799L4.29853 11.4236C5.10631 11.9621 6.19767 11.7439 6.73615 10.9361C7.27463 10.1285 7.05642 9.03713 6.24865 8.49853Z" fill="#7CB342"/>
<path d="M4.29853 35.4516L0.782907 37.7954C-0.024866 38.3339 -0.243069 39.4252 0.295407 40.233C0.833884 41.0408 1.92525 41.259 2.73302 40.7205L6.24865 38.3767C7.05642 37.8383 7.27463 36.7469 6.73615 35.9391C6.19767 35.1315 5.10631 34.9132 4.29853 35.4516Z" fill="#7CB342"/>
<path d="M5.27344 25.1953H1.75781C0.787031 25.1953 0 24.4083 0 23.4375C0 22.4667 0.787031 21.6797 1.75781 21.6797H5.27344C6.24422 21.6797 7.03125 22.4667 7.03125 23.4375C7.03125 24.4083 6.24422 25.1953 5.27344 25.1953Z" fill="#7CB342"/>
<path d="M58.2422 25.1953H54.7266C53.7558 25.1953 52.9688 24.4083 52.9688 23.4375C52.9688 22.4667 53.7558 21.6797 54.7266 21.6797H58.2422C59.213 21.6797 60 22.4667 60 23.4375C60 24.4083 59.213 25.1953 58.2422 25.1953Z" fill="#7CB342"/>
</svg>
