<svg width="60" height="60" viewBox="0 0 60 60" fill="none" xmlns="http://www.w3.org/2000/svg">
<path d="M43.1801 0H13.6073C13.1413 0 12.6944 0.185039 12.3648 0.514452L0.515272 12.3551C0.18539 12.6847 0 13.132 0 13.5984V58.2421C0 59.2129 0.78703 59.9999 1.75781 59.9999H43.1801C44.1509 59.9999 44.9379 59.2129 44.9379 58.2421V1.75781C44.9379 0.78703 44.1509 0 43.1801 0ZM11.8495 5.99929V11.8392H6.00514L11.8495 5.99929ZM41.4223 56.4843H3.51562V15.3548H13.6073C14.5781 15.3548 15.3651 14.5678 15.3651 13.597V3.51562H41.4222V56.4843H41.4223Z" fill="#7CB342"/>
<path d="M9.73437 24.7924C8.76359 24.7924 7.97656 25.5794 7.97656 26.5502V33.5814C7.97656 34.5522 8.76359 35.3392 9.73437 35.3392H16.7896C17.7604 35.3392 18.5474 34.5522 18.5474 33.5814V26.5502C18.5474 25.5794 17.7604 24.7924 16.7896 24.7924H9.73437ZM15.0318 31.8236H11.4922V28.308H15.0318V31.8236Z" fill="#7CB342"/>
<path d="M16.7896 42.3705H9.73437C8.76359 42.3705 7.97656 43.1575 7.97656 44.1283V51.1595C7.97656 52.1303 8.76359 52.9173 9.73437 52.9173H16.7896C17.7604 52.9173 18.5474 52.1303 18.5474 51.1595V44.1283C18.5474 43.1574 17.7605 42.3705 16.7896 42.3705ZM15.0318 49.4017H11.4922V45.8861H15.0318V49.4017Z" fill="#7CB342"/>
<path d="M24.5244 28.308H35.2037C36.1745 28.308 36.9615 27.5209 36.9615 26.5502C36.9615 25.5794 36.1745 24.7924 35.2037 24.7924H24.5244C23.5536 24.7924 22.7666 25.5794 22.7666 26.5502C22.7666 27.5209 23.5536 28.308 24.5244 28.308Z" fill="#7CB342"/>
<path d="M24.5244 15.3548H35.2037C36.1745 15.3548 36.9615 14.5678 36.9615 13.597C36.9615 12.6262 36.1745 11.8392 35.2037 11.8392H24.5244C23.5536 11.8392 22.7666 12.6262 22.7666 13.597C22.7666 14.5678 23.5536 15.3548 24.5244 15.3548Z" fill="#7CB342"/>
<path d="M24.5244 35.3392H35.2037C36.1745 35.3392 36.9615 34.5522 36.9615 33.5814C36.9615 32.6106 36.1745 31.8236 35.2037 31.8236H24.5244C23.5536 31.8236 22.7666 32.6106 22.7666 33.5814C22.7666 34.5522 23.5536 35.3392 24.5244 35.3392Z" fill="#7CB342"/>
<path d="M24.5244 45.8861H35.2037C36.1745 45.8861 36.9615 45.0991 36.9615 44.1283C36.9615 43.1575 36.1745 42.3705 35.2037 42.3705H24.5244C23.5536 42.3705 22.7666 43.1575 22.7666 44.1283C22.7666 45.0991 23.5536 45.8861 24.5244 45.8861Z" fill="#7CB342"/>
<path d="M24.5244 52.9174H35.2037C36.1745 52.9174 36.9615 52.1303 36.9615 51.1595C36.9615 50.1888 36.1745 49.4017 35.2037 49.4017H24.5244C23.5536 49.4017 22.7666 50.1888 22.7666 51.1595C22.7666 52.1303 23.5536 52.9174 24.5244 52.9174Z" fill="#7CB342"/>
<path d="M54.0967 0.119446H54.0825C50.8271 0.119446 48.1787 2.76788 48.1787 6.02311V49.7511C48.1787 50.0187 48.2398 50.2829 48.3574 50.5234L52.5104 59.0146C52.8055 59.6177 53.4182 60 54.0895 60C54.7609 60 55.3737 59.6175 55.6686 59.0145L59.8215 50.5233C59.9392 50.2829 60.0002 50.0187 60.0002 49.7511V6.02299C60.0003 2.76776 57.3519 0.119446 54.0967 0.119446ZM51.6943 10.3253H56.4847V42.9573H51.6943V10.3253ZM51.6943 6.02299C51.6943 4.70627 52.7657 3.63495 54.0825 3.63495H54.0967C55.4134 3.63495 56.4847 4.70627 56.4847 6.02299V6.80967H51.6943V6.02299ZM56.4847 49.3441L54.0896 54.2412L51.6944 49.3441V46.4729H56.4847V49.3441Z" fill="#7CB342"/>
</svg>
