<svg width="60" height="60" viewBox="0 0 60 60" fill="none" xmlns="http://www.w3.org/2000/svg">
<path d="M58.2422 44.1797H58.0078V41.9531C58.0078 39.4898 56.3099 37.4162 54.0231 36.8396C55.4735 33.5467 56.25 29.9346 56.25 26.25C56.25 11.7421 44.5099 0 30 0C13.5248 0 1.21617 14.9354 4.18852 31.0294C4.19848 31.1057 4.2116 31.1808 4.23082 31.2534C4.60289 33.1748 5.18859 35.0498 5.97691 36.8396C3.69012 37.4162 1.99219 39.4898 1.99219 41.9531V44.1797H1.75781C0.787031 44.1797 0 44.9667 0 45.9375V53.4375C0 54.4083 0.787031 55.1953 1.75781 55.1953H23.872C24.56 57.997 27.09 60 30 60C32.91 60 35.44 57.9971 36.128 55.1953H58.2422C59.213 55.1953 60 54.4083 60 53.4375V45.9375C60 44.9667 59.213 44.1797 58.2422 44.1797ZM54.4922 44.1797H36.79C35.0152 44.1797 33.3033 44.5861 31.7578 45.3511V42.0779C31.7578 39.489 33.864 37.3828 36.4528 37.3828C37.3841 37.3828 37.9461 37.6267 38.9334 37.9557C43.3821 39.4386 48.038 40.1953 52.7344 40.1953C53.7036 40.1953 54.4922 40.9839 54.4922 41.9531V44.1797ZM52.7325 26.3672H50.5078C49.9575 26.3672 49.4318 26.1043 49.1016 25.6641L48.5487 24.9268C47.4339 23.4404 45.5945 22.6443 43.7476 22.8497L38.9854 23.3788C38.4518 23.438 37.9279 23.2543 37.5482 22.8746L36.0934 21.4199C35.503 20.8294 35.4107 19.8966 35.8738 19.2019L36.5991 18.1139C37.8784 16.1948 37.7699 13.6954 36.3292 11.8945L36.0373 11.5296C35.5007 10.8588 35.5253 9.90598 36.096 9.26391L39.3966 5.55C47.3926 9.19418 52.7793 17.2377 52.7325 26.3672ZM35.8275 4.27395L33.4683 6.92848C31.7563 8.8548 31.6822 11.7135 33.292 13.7258L33.5839 14.0907C34.0642 14.6911 34.1004 15.5242 33.6739 16.1639L32.9487 17.2519C31.5591 19.3362 31.8361 22.1346 33.6075 23.9059L35.0623 25.3607C36.2012 26.4996 37.7725 27.0507 39.3735 26.873L44.1359 26.3439C44.7507 26.2753 45.3645 26.5406 45.7362 27.0362L46.2891 27.7734C47.2796 29.0943 48.8568 29.8828 50.5078 29.8828H52.4422C52.0645 32.2234 51.3218 34.4931 50.2425 36.602C46.7742 36.387 43.3543 35.7234 40.0453 34.6205L39.0493 34.2885C35.8061 33.2072 32.1821 34.2375 30 37.0099C27.8173 34.2367 24.1931 33.2077 20.9508 34.2884L19.9547 34.6204C16.6458 35.7233 13.2259 36.3868 9.75762 36.6019C9.0743 35.2668 8.5268 33.8672 8.12109 32.4257L16.7323 31.8873C18.7007 31.7643 20.4211 30.5681 21.2221 28.7659L23.0047 24.7549C23.9346 22.6628 23.4514 20.0723 21.4276 18.4533C20.7101 17.8793 20.5535 16.87 21.0632 16.1055L21.3282 15.7078C22.7794 13.5311 22.3991 10.579 20.4438 8.84109L18.1852 6.83344C23.5846 3.53578 29.9817 2.7225 35.8275 4.27395ZM15.2709 8.94715L18.1082 11.469C18.76 12.0483 18.8866 13.0323 18.4029 13.7579L18.1378 14.1555C16.6581 16.3751 16.9911 19.4085 19.2839 21.2406C19.9075 21.7395 20.1164 22.5974 19.7921 23.3271L18.0095 27.3381C17.7424 27.9388 17.169 28.3376 16.5129 28.3786L7.42852 28.9465C6.51047 21.2404 9.54937 13.825 15.2709 8.94715ZM5.50781 41.9531C5.50781 40.9839 6.29637 40.1953 7.26562 40.1953C7.90605 40.1953 8.70246 40.1719 8.8227 40.1661C12.9898 40.0181 17.1013 39.2775 21.0663 37.9557C22.043 37.6302 22.6178 37.3828 23.5471 37.3828C26.136 37.3828 28.2422 39.489 28.2422 42.0778V45.351C26.6967 44.586 24.9848 44.1796 23.21 44.1796H5.50781V41.9531ZM56.4844 51.6797H35.8328C34.3301 51.6797 33.0306 52.7502 32.7429 54.225C32.4874 55.5342 31.3338 56.4844 30 56.4844C28.6662 56.4844 27.5126 55.5342 27.2571 54.225C26.9694 52.7502 25.6699 51.6797 24.1672 51.6797H3.51562V47.6953H23.21C25.3054 47.6953 27.2753 48.5113 28.757 49.993C29.4435 50.6794 30.5564 50.6795 31.2429 49.993C32.7246 48.5113 34.6946 47.6953 36.79 47.6953H56.4844V51.6797Z" fill="#7CB342"/>
</svg>
